<?xml version="1.0" encoding="utf-8"?><!-- Uploaded to: SVG Repo, www.svgrepo.com, Generator: SVG Repo Mixer Tools -->
<svg width="800px" height="800px" viewBox="0 0 24 24" fill="none" xmlns="http://www.w3.org/2000/svg">
<path fill-rule="evenodd" clip-rule="evenodd" d="M21.5262 17.4999C18.4887 22.7611 11.7612 24.5637 6.49994 21.5262C1.23873 18.4886 -0.563901 11.7611 2.47367 6.49988C5.51123 1.23866 12.2387 -0.563962 17.4999 2.4736C22.7612 5.51117 24.5638 12.2387 21.5262 17.4999ZM5.84382 7.87995C5.25279 7.64272 4.74291 7.45257 4.3292 7.30543C5.59153 5.24057 7.56267 3.85898 9.74648 3.29362C9.77176 3.62621 9.82851 4.00289 9.93722 4.40861C10.3269 5.86297 11.3579 7.58777 13.75 8.96886C14.0666 9.15165 14.3765 9.31079 14.6793 9.44842C14.4757 10.219 14.1794 11.0351 13.7614 11.8848C13.3566 11.6365 12.936 11.3857 12.5 11.1339C9.85449 9.60655 7.52076 8.55305 5.84382 7.87995ZM12.7587 13.6161C12.3555 13.3682 11.9358 13.1176 11.5 12.866C8.94938 11.3934 6.70297 10.3799 5.09882 9.73602C4.44209 9.47241 3.89359 9.27099 3.47664 9.12556C2.8887 10.8629 2.86217 12.7007 3.33339 14.4015C3.63406 14.2571 3.98864 14.1179 4.39435 14.0092C5.84872 13.6195 7.85792 13.65 10.25 15.0311C10.5667 15.2139 10.8594 15.4027 11.13 15.5961C11.6875 15.0424 12.2384 14.3885 12.7587 13.6161ZM12.6204 16.9341C13.4037 17.8315 13.839 18.756 14.0628 19.5913C14.1715 19.997 14.2283 20.3736 14.2536 20.7061C15.962 20.2638 17.5403 19.3219 18.7509 17.9441C18.4164 17.6557 17.9678 17.2815 17.4112 16.8446C16.6284 16.2301 15.633 15.4925 14.4426 14.6962C13.8639 15.5605 13.2482 16.3006 12.6204 16.9341ZM9.52737 16.9296C9.43788 16.8737 9.34548 16.8182 9.25005 16.7631C7.31205 15.6442 5.84818 15.6902 4.91199 15.9411C4.58 16.03 4.30141 16.1484 4.0805 16.2639C4.53358 17.1073 5.12461 17.8846 5.84359 18.5583C5.87614 18.5513 5.90977 18.5439 5.94444 18.5361C6.44532 18.4223 7.15871 18.2112 7.97658 17.8245C8.4626 17.5947 8.98712 17.3022 9.52737 16.9296ZM7.92672 20.018C8.21347 19.909 8.51642 19.7815 8.83145 19.6326C9.54844 19.2936 10.3256 18.8442 11.1145 18.2503C11.6989 18.9202 11.9873 19.5728 12.131 20.109C12.2199 20.4409 12.2567 20.7413 12.2672 20.9903C10.8031 21.0352 9.31171 20.7231 7.92672 20.018ZM18.6461 15.2714C17.8061 14.612 16.7364 13.8204 15.4558 12.968C15.9672 11.9634 16.3317 10.9922 16.5833 10.0701C17.7521 10.2998 18.7704 10.2145 19.6057 9.99072C20.0114 9.88202 20.3659 9.74284 20.6666 9.59846C21.2688 11.7723 21.0579 14.1701 19.9008 16.2957C19.5666 16.011 19.147 15.6645 18.6461 15.2714ZM16.9702 8.10789C17.8425 8.27902 18.5519 8.20254 19.0881 8.05887C19.42 7.96992 19.6986 7.85154 19.9195 7.73607C19.2263 6.44565 18.2102 5.3101 16.907 4.46319C16.956 4.76614 16.9971 5.09234 17.0257 5.43977C17.0906 6.23015 17.09 7.1278 16.9702 8.10789ZM15.0328 7.39372C15.0854 6.73963 15.0764 6.13922 15.0324 5.60348C14.9583 4.70183 14.7845 3.97847 14.6326 3.4878C14.622 3.45374 14.6116 3.42082 14.6013 3.38905C13.6584 3.10331 12.6898 2.9801 11.7329 3.00943C11.7433 3.2585 11.7801 3.55897 11.8691 3.89097C12.1199 4.82716 12.812 6.11791 14.75 7.23681C14.8454 7.2919 14.9397 7.34416 15.0328 7.39372Z" fill="#0F0F0F"/>
</svg>