<?xml version="1.0" encoding="iso-8859-1"?>
<!-- Uploaded to: SVG Repo, www.svgrepo.com, Generator: SVG Repo Mixer Tools -->
<svg fill="#000000" height="800px" width="800px" version="1.1" id="Layer_1" xmlns="http://www.w3.org/2000/svg" xmlns:xlink="http://www.w3.org/1999/xlink" 
	 viewBox="0 0 330 330" xml:space="preserve">
<path id="XMLID_510_" d="M315,5.013H205c-0.09,0-0.178,0.012-0.268,0.013c-0.259,0.005-0.517,0.022-0.774,0.039
	c-0.249,0.017-0.497,0.034-0.743,0.063c-0.216,0.026-0.43,0.063-0.645,0.099c-0.277,0.045-0.555,0.09-0.827,0.15
	c-0.184,0.041-0.364,0.093-0.547,0.141c-0.289,0.076-0.579,0.151-0.861,0.244c-0.18,0.059-0.355,0.129-0.532,0.195
	c-0.272,0.101-0.545,0.2-0.81,0.315c-0.2,0.088-0.395,0.189-0.592,0.285c-0.231,0.113-0.463,0.223-0.687,0.348
	c-0.223,0.124-0.436,0.262-0.653,0.397c-0.189,0.119-0.382,0.233-0.565,0.36c-0.221,0.152-0.433,0.318-0.646,0.483
	c-0.172,0.133-0.347,0.263-0.513,0.403c-0.195,0.165-0.382,0.342-0.57,0.519c-0.176,0.164-0.352,0.327-0.519,0.5
	c-0.16,0.164-0.313,0.338-0.465,0.511c-0.184,0.207-0.364,0.416-0.537,0.633c-0.052,0.065-0.109,0.124-0.161,0.19l-24.26,31.725
	L135.607,9.407c-0.013-0.013-0.027-0.023-0.04-0.036c-0.338-0.335-0.691-0.656-1.06-0.958c-0.169-0.139-0.348-0.259-0.521-0.39
	c-0.218-0.163-0.432-0.332-0.658-0.484c-0.208-0.139-0.423-0.259-0.636-0.387c-0.208-0.124-0.411-0.254-0.624-0.369
	c-0.216-0.115-0.438-0.213-0.658-0.317c-0.224-0.106-0.444-0.217-0.673-0.313c-0.213-0.088-0.43-0.158-0.646-0.236
	c-0.246-0.089-0.489-0.183-0.74-0.259c-0.214-0.065-0.432-0.112-0.648-0.167c-0.257-0.065-0.512-0.137-0.775-0.189
	c-0.249-0.049-0.5-0.078-0.751-0.115c-0.233-0.034-0.463-0.078-0.699-0.101c-0.461-0.045-0.923-0.067-1.386-0.07
	c-0.03,0-0.06-0.004-0.091-0.004H15c-8.284,0-15,6.716-15,15v109.974c0,8.284,6.716,15,15,15h45v165c0,8.284,6.716,15,15,15h180
	c8.284,0,15-6.716,15-15v-165h45c8.284,0,15-6.716,15-15V20.013C330,11.729,323.284,5.013,315,5.013z M30,114.987V35.013h88.787
	l31.654,31.654L90,145.704v-15.717c0-8.284-6.716-15-15-15H30z M90,294.987v-90h50.727l-19.156,38.304
	c-3.705,7.409-0.703,16.42,6.707,20.126c2.154,1.077,4.443,1.587,6.698,1.587c5.502,0,10.799-3.039,13.428-8.294l16.594-33.181
	l16.594,33.181c2.629,5.256,7.926,8.294,13.428,8.294c2.255,0,4.544-0.511,6.697-1.587c7.41-3.706,10.412-12.716,6.707-20.126
	l-19.156-38.304H240v90H90z M300,114.987h-45c-8.284,0-15,6.716-15,15v45H105.374L212.412,35.013H300V114.987z"/>
</svg>